<?xml version="1.0" standalone="no"?>
<!DOCTYPE svg PUBLIC "-//W3C//DTD SVG 20010904//EN"
 "http://www.w3.org/TR/2001/REC-SVG-20010904/DTD/svg10.dtd">
<svg version="1.0" xmlns="http://www.w3.org/2000/svg"
 width="1300.000000pt" height="1300.000000pt" viewBox="0 0 1300.000000 1300.000000"
 preserveAspectRatio="xMidYMid meet">

<g transform="translate(0.000000,1300.000000) scale(0.100000,-0.100000)"
fill="#000000" stroke="none">
<path d="M5588 8542 l-518 -2 0 -140 0 -140 445 0 445 0 0 -140 0 -140 -37 0
c-21 -1 -220 -2 -443 -3 l-405 -2 -2 -625 -3 -625 252 -240 c241 -230 454
-435 768 -742 l145 -142 3 635 2 635 -137 134 -138 133 -3 -424 c-2 -361 -4
-425 -16 -422 -8 2 -113 98 -233 213 -120 116 -248 239 -285 274 l-68 64 0
424 0 423 298 -2 297 -3 5 -134 5 -133 138 132 137 132 0 433 0 434 -67 -2
c-38 -1 -301 -3 -585 -5z"/>
<path d="M5700 4985 c-128 -21 -213 -96 -255 -224 -39 -118 5 -281 96 -360
121 -104 319 -106 438 -4 l42 36 -27 28 c-32 33 -46 36 -65 12 -8 -9 -36 -27
-64 -39 -182 -85 -370 83 -322 287 18 72 56 122 120 154 82 41 168 33 251 -23
l44 -30 26 27 c32 33 32 42 4 68 -65 60 -178 87 -288 68z"/>
<path d="M4863 4976 c-144 -47 -234 -190 -219 -350 13 -143 89 -240 222 -286
157 -54 331 14 406 159 44 86 51 196 18 283 -26 70 -92 146 -155 177 -60 30
-206 39 -272 17z m232 -106 c134 -83 149 -297 30 -403 -11 -10 -39 -27 -63
-37 -110 -50 -232 -1 -293 118 -30 60 -32 157 -4 217 26 53 88 111 133 124 59
16 155 7 197 -19z"/>
<path d="M8114 4981 c-99 -25 -159 -143 -123 -238 23 -60 82 -101 179 -122
124 -28 180 -63 180 -113 0 -64 -46 -98 -133 -98 -57 0 -109 18 -164 58 -41
29 -47 28 -74 -10 l-23 -31 34 -29 c78 -65 226 -94 319 -63 96 32 141 88 141
177 0 100 -41 136 -210 189 -155 48 -198 103 -131 170 51 50 152 40 271 -28 9
-5 51 68 45 78 -4 5 -30 21 -58 36 -42 21 -68 27 -137 29 -47 2 -99 -1 -116
-5z"/>
<path d="M1792 4658 l3 -323 45 0 45 0 3 225 c1 123 6 228 11 233 4 4 50 -69
102 -164 101 -183 124 -209 158 -173 10 10 40 60 67 109 26 50 60 112 76 138
15 26 28 52 28 57 0 5 8 16 18 26 16 17 17 6 22 -217 l5 -234 45 0 45 0 3 323
2 322 -62 0 c-74 0 -50 30 -208 -265 -53 -99 -63 -115 -71 -115 -6 0 -66 107
-180 318 l-34 62 -62 0 -63 0 2 -322z"/>
<path d="M2670 4655 l0 -325 235 0 235 0 0 45 0 45 -184 0 -184 0 -7 79 c-11
128 -22 121 171 121 l164 0 0 40 0 40 -159 0 c-169 0 -179 3 -176 50 1 14 2
51 3 83 l2 57 185 0 185 0 0 45 0 45 -235 0 -235 0 0 -325z"/>
<path d="M3302 4658 l3 -323 125 -3 c132 -3 234 9 282 34 126 65 198 217 169
356 -16 80 -33 111 -88 164 -80 78 -112 87 -316 92 l-177 4 2 -324z m375 199
c81 -52 121 -152 102 -254 -24 -127 -125 -188 -300 -181 l-74 3 -3 234 -2 233
117 -4 c108 -3 122 -6 160 -31z"/>
<path d="M3961 4953 c6 -15 52 -127 103 -248 52 -121 107 -254 123 -295 l30
-75 45 -3 c28 -2 48 2 54 10 11 14 58 122 132 303 28 66 70 169 96 228 l46
108 -56 -3 -56 -3 -18 -45 c-9 -25 -46 -117 -82 -205 -35 -88 -73 -182 -82
-208 -10 -27 -22 -45 -26 -40 -4 4 -29 60 -54 123 -25 63 -70 174 -99 245
l-52 130 -58 3 -57 3 11 -28z"/>
<path d="M6356 4958 c-9 -12 -16 -26 -16 -31 0 -5 -7 -23 -15 -40 -107 -227
-240 -543 -231 -549 14 -10 68 -10 83 0 6 4 24 36 39 72 16 36 33 68 39 72 19
14 323 9 332 -4 4 -7 20 -42 34 -78 26 -65 27 -65 69 -68 70 -5 72 -1 39 68
-16 33 -29 62 -29 65 0 2 -17 41 -39 87 -21 46 -57 126 -81 178 -23 52 -58
130 -78 173 l-36 77 -47 0 c-38 0 -51 -5 -63 -22z m77 -120 c70 -167 97 -235
97 -245 0 -10 -28 -13 -115 -13 -63 0 -115 4 -115 8 0 5 23 61 50 125 28 64
50 121 50 127 0 14 27 13 33 -2z"/>
<path d="M6710 4935 l0 -44 108 -3 107 -3 5 -275 5 -275 45 0 45 0 3 278 2
277 105 0 105 0 0 45 0 45 -265 0 -265 0 0 -45z"/>
<path d="M7370 4655 l0 -325 243 2 242 3 3 42 3 43 -193 2 -193 3 -3 83 c-2
53 1 89 9 98 9 11 46 14 170 14 l159 0 0 40 0 40 -167 2 -168 3 -3 93 c-2 70
0 92 10 92 7 1 92 2 188 3 l175 2 3 43 3 42 -240 0 -241 0 0 -325z"/>
</g>
</svg>
